<svg width="20" height="19" viewBox="0 0 20 19" fill="none" xmlns="http://www.w3.org/2000/svg">
<path d="M9.93096 4.38257C6.98086 4.38257 4.58008 6.67896 4.58008 9.50081C4.58008 12.3226 6.98086 14.6178 9.93096 14.6178C12.8811 14.6178 15.2806 12.3226 15.2806 9.50081C15.2806 6.67896 12.8811 4.38257 9.93096 4.38257ZM9.93096 13.1595C7.82138 13.1595 6.106 11.5175 6.106 9.50081C6.106 7.48295 7.82138 5.84214 9.93096 5.84214C12.0393 5.84214 13.7559 7.48295 13.7559 9.50081C13.7547 11.5175 12.0393 13.1595 9.93096 13.1595Z" fill="white"/>
<path d="M15.8639 4.87745C16.2537 4.87745 16.5697 4.57522 16.5697 4.2024C16.5697 3.82958 16.2537 3.52734 15.8639 3.52734C15.4742 3.52734 15.1582 3.82958 15.1582 4.2024C15.1582 4.57522 15.4742 4.87745 15.8639 4.87745Z" fill="white"/>
<path d="M15.2592 0H4.60191C2.05999 0 0 1.97164 0 4.40305V14.597C0 17.0284 2.06126 19 4.60191 19H15.2592C17.8011 19 19.8624 17.0284 19.8624 14.597V4.40426C19.8624 1.97164 17.8011 0 15.2592 0ZM18.3364 14.597C18.3364 16.2195 16.9555 17.5404 15.2592 17.5404H4.60191C2.9056 17.5404 1.52592 16.2195 1.52592 14.597V4.40426C1.52592 2.7817 2.9056 1.46079 4.60191 1.46079H15.2592C16.9555 1.46079 18.3364 2.78049 18.3364 4.40426V14.597Z" fill="white"/>
</svg>
