<svg width="35" height="52" viewBox="0 0 35 52" fill="none" xmlns="http://www.w3.org/2000/svg">
<path d="M17.0438 12.4858C14.8145 12.4858 13 14.2998 13 16.5291C13 18.7585 14.814 20.5719 17.0438 20.5719C19.2726 20.5719 21.0861 18.759 21.0861 16.5291C21.0861 14.3004 19.2726 12.4858 17.0438 12.4858Z" fill="#EE1700"/>
<path d="M17.0432 0C7.63031 0 0 7.63085 0 17.0438C0 26.4567 17.0432 51.4142 17.0432 51.4142C17.0432 51.4142 34.087 26.4567 34.087 17.0438C34.087 7.63085 26.4562 0 17.0432 0ZM17.0443 25.7701C11.9486 25.7701 7.80315 21.6237 7.80315 16.529C7.80315 11.4332 11.9486 7.28783 17.0443 7.28783C22.1395 7.28783 26.2849 11.4332 26.2849 16.529C26.2849 21.6237 22.139 25.7701 17.0443 25.7701Z" fill="#EE1700"/>
</svg>
